<mxfile host="app.diagrams.net" modified="2023-07-27T02:50:09.384Z" agent="Mozilla/5.0 (Windows NT 10.0; Win64; x64) AppleWebKit/537.36 (KHTML, like Gecko) Chrome/115.0.0.0 Safari/537.36" etag="ZANeDE1k6sXskEFvqVa1" version="21.6.5" type="github">
  <diagram name="Página-1" id="Hfn5TFAqulWe2UTUbRwc">
    <mxGraphModel dx="874" dy="522" grid="1" gridSize="10" guides="1" tooltips="1" connect="1" arrows="1" fold="1" page="1" pageScale="1" pageWidth="827" pageHeight="1169" math="0" shadow="0">
      <root>
        <mxCell id="0" />
        <mxCell id="1" parent="0" />
        <mxCell id="YJsUsRHStp0eWO6FVPdH-1" value="Início" style="rounded=1;whiteSpace=wrap;html=1;" vertex="1" parent="1">
          <mxGeometry x="330" y="70" width="120" height="60" as="geometry" />
        </mxCell>
        <mxCell id="YJsUsRHStp0eWO6FVPdH-3" value="" style="endArrow=classic;html=1;rounded=0;exitX=0.5;exitY=1;exitDx=0;exitDy=0;entryX=0.5;entryY=0;entryDx=0;entryDy=0;" edge="1" parent="1" source="YJsUsRHStp0eWO6FVPdH-1">
          <mxGeometry width="50" height="50" relative="1" as="geometry">
            <mxPoint x="290" y="200" as="sourcePoint" />
            <mxPoint x="390" y="180" as="targetPoint" />
          </mxGeometry>
        </mxCell>
        <mxCell id="YJsUsRHStp0eWO6FVPdH-4" value="Pegue uma panela adequada" style="rounded=0;whiteSpace=wrap;html=1;" vertex="1" parent="1">
          <mxGeometry x="330" y="180" width="120" height="60" as="geometry" />
        </mxCell>
        <mxCell id="YJsUsRHStp0eWO6FVPdH-5" value="Coloque agua na panela, equivalente a quantidade de macarrão" style="rounded=0;whiteSpace=wrap;html=1;" vertex="1" parent="1">
          <mxGeometry x="330" y="620" width="120" height="60" as="geometry" />
        </mxCell>
        <mxCell id="YJsUsRHStp0eWO6FVPdH-6" value="" style="endArrow=classic;html=1;rounded=0;exitX=0.5;exitY=1;exitDx=0;exitDy=0;" edge="1" parent="1" source="YJsUsRHStp0eWO6FVPdH-4">
          <mxGeometry width="50" height="50" relative="1" as="geometry">
            <mxPoint x="380" y="540" as="sourcePoint" />
            <mxPoint x="390" y="300" as="targetPoint" />
          </mxGeometry>
        </mxCell>
        <mxCell id="YJsUsRHStp0eWO6FVPdH-7" value="Com a panela com agua, coloque-a em cima de uma das bocas do fogão" style="rounded=0;whiteSpace=wrap;html=1;" vertex="1" parent="1">
          <mxGeometry x="330" y="720" width="120" height="60" as="geometry" />
        </mxCell>
        <mxCell id="YJsUsRHStp0eWO6FVPdH-8" value="" style="endArrow=classic;html=1;rounded=0;exitX=0.5;exitY=1;exitDx=0;exitDy=0;entryX=0.5;entryY=0;entryDx=0;entryDy=0;" edge="1" parent="1" source="YJsUsRHStp0eWO6FVPdH-5" target="YJsUsRHStp0eWO6FVPdH-7">
          <mxGeometry width="50" height="50" relative="1" as="geometry">
            <mxPoint x="380" y="730" as="sourcePoint" />
            <mxPoint x="430" y="680" as="targetPoint" />
          </mxGeometry>
        </mxCell>
        <mxCell id="YJsUsRHStp0eWO6FVPdH-9" value="Ligue o fogo da boca do fogão onde a panela se encontra" style="rounded=0;whiteSpace=wrap;html=1;" vertex="1" parent="1">
          <mxGeometry x="330" y="830" width="120" height="60" as="geometry" />
        </mxCell>
        <mxCell id="YJsUsRHStp0eWO6FVPdH-10" value="" style="endArrow=classic;html=1;rounded=0;entryX=0.5;entryY=0;entryDx=0;entryDy=0;" edge="1" parent="1" source="YJsUsRHStp0eWO6FVPdH-7" target="YJsUsRHStp0eWO6FVPdH-9">
          <mxGeometry width="50" height="50" relative="1" as="geometry">
            <mxPoint x="450" y="800" as="sourcePoint" />
            <mxPoint x="490" y="750" as="targetPoint" />
          </mxGeometry>
        </mxCell>
        <mxCell id="YJsUsRHStp0eWO6FVPdH-18" value="É para 1 pessoa?" style="rhombus;whiteSpace=wrap;html=1;" vertex="1" parent="1">
          <mxGeometry x="300" y="300" width="180" height="100" as="geometry" />
        </mxCell>
        <mxCell id="YJsUsRHStp0eWO6FVPdH-19" value="Sim" style="text;html=1;align=center;verticalAlign=middle;resizable=0;points=[];autosize=1;strokeColor=none;fillColor=none;" vertex="1" parent="1">
          <mxGeometry x="560" y="320" width="40" height="30" as="geometry" />
        </mxCell>
        <mxCell id="YJsUsRHStp0eWO6FVPdH-20" value="Não" style="text;html=1;align=center;verticalAlign=middle;resizable=0;points=[];autosize=1;strokeColor=none;fillColor=none;" vertex="1" parent="1">
          <mxGeometry x="200" y="320" width="50" height="30" as="geometry" />
        </mxCell>
        <mxCell id="YJsUsRHStp0eWO6FVPdH-21" value="" style="endArrow=classic;html=1;rounded=0;" edge="1" parent="1">
          <mxGeometry width="50" height="50" relative="1" as="geometry">
            <mxPoint x="290" y="350" as="sourcePoint" />
            <mxPoint x="160" y="460" as="targetPoint" />
            <Array as="points">
              <mxPoint x="160" y="350" />
            </Array>
          </mxGeometry>
        </mxCell>
        <mxCell id="YJsUsRHStp0eWO6FVPdH-22" value="" style="endArrow=classic;html=1;rounded=0;" edge="1" parent="1">
          <mxGeometry width="50" height="50" relative="1" as="geometry">
            <mxPoint x="490" y="350" as="sourcePoint" />
            <mxPoint x="640" y="450" as="targetPoint" />
            <Array as="points">
              <mxPoint x="640" y="350" />
              <mxPoint x="640" y="400" />
            </Array>
          </mxGeometry>
        </mxCell>
        <mxCell id="YJsUsRHStp0eWO6FVPdH-23" value="Pegue a quantidade de pacotes de macarrão equivalente a quantidade de pessoas que deseja" style="rounded=0;whiteSpace=wrap;html=1;" vertex="1" parent="1">
          <mxGeometry x="110" y="470" width="120" height="80" as="geometry" />
        </mxCell>
        <mxCell id="YJsUsRHStp0eWO6FVPdH-25" value="Pegue 1 pacote de macarrão" style="rounded=0;whiteSpace=wrap;html=1;" vertex="1" parent="1">
          <mxGeometry x="580" y="460" width="120" height="60" as="geometry" />
        </mxCell>
        <mxCell id="YJsUsRHStp0eWO6FVPdH-26" value="" style="endArrow=classic;html=1;rounded=0;" edge="1" parent="1">
          <mxGeometry width="50" height="50" relative="1" as="geometry">
            <mxPoint x="160" y="560" as="sourcePoint" />
            <mxPoint x="320" y="650" as="targetPoint" />
            <Array as="points">
              <mxPoint x="160" y="650" />
            </Array>
          </mxGeometry>
        </mxCell>
        <mxCell id="YJsUsRHStp0eWO6FVPdH-28" value="" style="endArrow=classic;html=1;rounded=0;" edge="1" parent="1">
          <mxGeometry width="50" height="50" relative="1" as="geometry">
            <mxPoint x="640" y="530" as="sourcePoint" />
            <mxPoint x="460" y="650" as="targetPoint" />
            <Array as="points">
              <mxPoint x="640" y="590" />
              <mxPoint x="640" y="650" />
            </Array>
          </mxGeometry>
        </mxCell>
        <mxCell id="YJsUsRHStp0eWO6FVPdH-29" value="Coloque o tempero equivalente a quantidade de pacotes de macarrão na panela e mexa" style="rounded=0;whiteSpace=wrap;html=1;" vertex="1" parent="1">
          <mxGeometry x="330" y="940" width="120" height="80" as="geometry" />
        </mxCell>
        <mxCell id="YJsUsRHStp0eWO6FVPdH-30" value="" style="endArrow=classic;html=1;rounded=0;exitX=0.5;exitY=1;exitDx=0;exitDy=0;entryX=0.5;entryY=0;entryDx=0;entryDy=0;" edge="1" parent="1" source="YJsUsRHStp0eWO6FVPdH-9" target="YJsUsRHStp0eWO6FVPdH-29">
          <mxGeometry width="50" height="50" relative="1" as="geometry">
            <mxPoint x="380" y="950" as="sourcePoint" />
            <mxPoint x="390" y="930" as="targetPoint" />
          </mxGeometry>
        </mxCell>
        <mxCell id="YJsUsRHStp0eWO6FVPdH-31" value="Aguarde 5 minutos após a agua ferver desligue o fogão" style="rounded=0;whiteSpace=wrap;html=1;" vertex="1" parent="1">
          <mxGeometry x="330" y="1070" width="120" height="60" as="geometry" />
        </mxCell>
        <mxCell id="YJsUsRHStp0eWO6FVPdH-32" value="" style="endArrow=classic;html=1;rounded=0;exitX=0.5;exitY=1;exitDx=0;exitDy=0;entryX=0.5;entryY=0;entryDx=0;entryDy=0;" edge="1" parent="1" source="YJsUsRHStp0eWO6FVPdH-29" target="YJsUsRHStp0eWO6FVPdH-31">
          <mxGeometry width="50" height="50" relative="1" as="geometry">
            <mxPoint x="390" y="1070" as="sourcePoint" />
            <mxPoint x="440" y="1020" as="targetPoint" />
          </mxGeometry>
        </mxCell>
        <mxCell id="YJsUsRHStp0eWO6FVPdH-33" value="Retire o macarrão pronto e sirva-o" style="rounded=0;whiteSpace=wrap;html=1;" vertex="1" parent="1">
          <mxGeometry x="330" y="1169" width="120" height="60" as="geometry" />
        </mxCell>
        <mxCell id="YJsUsRHStp0eWO6FVPdH-34" value="" style="endArrow=classic;html=1;rounded=0;exitX=0.5;exitY=1;exitDx=0;exitDy=0;entryX=0.5;entryY=0;entryDx=0;entryDy=0;" edge="1" parent="1" source="YJsUsRHStp0eWO6FVPdH-31" target="YJsUsRHStp0eWO6FVPdH-33">
          <mxGeometry width="50" height="50" relative="1" as="geometry">
            <mxPoint x="380" y="1190" as="sourcePoint" />
            <mxPoint x="430" y="1140" as="targetPoint" />
          </mxGeometry>
        </mxCell>
        <mxCell id="YJsUsRHStp0eWO6FVPdH-35" value="Fim" style="rounded=1;whiteSpace=wrap;html=1;" vertex="1" parent="1">
          <mxGeometry x="330" y="1280" width="120" height="60" as="geometry" />
        </mxCell>
        <mxCell id="YJsUsRHStp0eWO6FVPdH-36" value="" style="endArrow=classic;html=1;rounded=0;entryX=0.5;entryY=0;entryDx=0;entryDy=0;" edge="1" parent="1" target="YJsUsRHStp0eWO6FVPdH-35">
          <mxGeometry width="50" height="50" relative="1" as="geometry">
            <mxPoint x="390" y="1230" as="sourcePoint" />
            <mxPoint x="430" y="1240" as="targetPoint" />
          </mxGeometry>
        </mxCell>
      </root>
    </mxGraphModel>
  </diagram>
</mxfile>
